HIERARCHY
ROOT hip
{
	OFFSET 0.00000 0.00000 0.00000
	CHANNELS 6 Xposition Yposition Zposition Zrotation Yrotation Xrotation
	JOINT lhipjoint
	{
		OFFSET 0 0 0
		CHANNELS 3 Zrotation Yrotation Xrotation
		JOINT lfemur
		{
			OFFSET 1.57314 -1.85774 0.63783
			CHANNELS 3 Zrotation Yrotation Xrotation
			JOINT ltibia
			{
				OFFSET 2.57982 -7.08799 0.00000
				CHANNELS 3 Zrotation Yrotation Xrotation
				JOINT lfoot
				{
					OFFSET 2.63993 -7.25315 0.00000
					CHANNELS 3 Zrotation Yrotation Xrotation
					JOINT ltoes
					{
						OFFSET 0.16864 -0.46332 2.12791
						CHANNELS 3 Zrotation Yrotation Xrotation
						End Site
						{
							OFFSET 0.00000 -0.00000 1.09718
						}
					}
				}
			}
		}
	}
	JOINT rhipjoint
	{
		OFFSET 0 0 0
		CHANNELS 3 Zrotation Yrotation Xrotation
		JOINT rfemur
		{
			OFFSET -1.56006 -1.85774 0.63784
			CHANNELS 3 Zrotation Yrotation Xrotation
			JOINT rtibia
			{
				OFFSET -2.54246 -6.98536 0.00000
				CHANNELS 3 Zrotation Yrotation Xrotation
				JOINT rfoot
				{
					OFFSET -2.65791 -7.30256 0.00000
					CHANNELS 3 Zrotation Yrotation Xrotation
					JOINT rtoes
					{
						OFFSET -0.18435 -0.50650 2.16316
						CHANNELS 3 Zrotation Yrotation Xrotation
						End Site
						{
							OFFSET -0.00000 -0.00000 1.11780
						}
					}
				}
			}
		}
	}
	JOINT lowerback
	{
		OFFSET 0 0 0
		CHANNELS 3 Zrotation Yrotation Xrotation
		JOINT upperback
		{
			OFFSET -0.00136 1.92812 -0.29638
			CHANNELS 3 Zrotation Yrotation Xrotation
			JOINT thorax
			{
				OFFSET -0.00528 1.96223 -0.02928
				CHANNELS 3 Zrotation Yrotation Xrotation
				JOINT lowerneck
				{
					OFFSET 0 0 0
					CHANNELS 3 Zrotation Yrotation Xrotation
					JOINT upperneck
					{
						OFFSET -0.01015 1.75586 0.07797
						CHANNELS 3 Zrotation Yrotation Xrotation
						JOINT head
						{
							OFFSET 0.05540 1.72452 0.04558
							CHANNELS 3 Zrotation Yrotation Xrotation
							End Site
							{
								OFFSET 0.02170 1.79958 0.00864
							}
						}
					}
				}
				JOINT lclavicle
				{
					OFFSET 0 0 0
					CHANNELS 3 Zrotation Yrotation Xrotation
					JOINT lhumerus
					{
						OFFSET 3.16292 1.29277 -0.65728
						CHANNELS 3 Zrotation Yrotation Xrotation
						JOINT lradius
						{
							OFFSET 5.52302 -0.00000 -0.00000
							CHANNELS 3 Zrotation Yrotation Xrotation
							JOINT lwrist
							{
								OFFSET 3.58675 -0.00000 -0.00000
								CHANNELS 3 Zrotation Yrotation Xrotation
								JOINT lhand
								{
									OFFSET 0 0 0
									CHANNELS 3 Zrotation Yrotation Xrotation
									JOINT lfingers
									{
										OFFSET 0.53641 -0.00000 -0.00000
										CHANNELS 3 Zrotation Yrotation Xrotation
										End Site
										{
											OFFSET 0.43247 -0.00000 -0.00000
										}
									}
								}
								JOINT lthumb
								{
									OFFSET 0 0 0
									CHANNELS 3 Zrotation Yrotation Xrotation
									End Site
									{
										OFFSET 0.43907 -0.00000 0.43907
									}
								}
							}
						}
					}
				}
				JOINT rclavicle
				{
					OFFSET 0 0 0
					CHANNELS 3 Zrotation Yrotation Xrotation
					JOINT rhumerus
					{
						OFFSET -3.08296 1.43376 -0.52927
						CHANNELS 3 Zrotation Yrotation Xrotation
						JOINT rradius
						{
							OFFSET -5.84780 -0.00000 0.00000
							CHANNELS 3 Zrotation Yrotation Xrotation
							JOINT rwrist
							{
								OFFSET -3.62717 -0.00000 -0.00000
								CHANNELS 3 Zrotation Yrotation Xrotation
								JOINT rhand
								{
									OFFSET 0 0 0
									CHANNELS 3 Zrotation Yrotation Xrotation
									JOINT rfingers
									{
										OFFSET -0.65052 -0.00000 -0.00000
										CHANNELS 3 Zrotation Yrotation Xrotation
										End Site
										{
											OFFSET -0.52446 -0.00000 -0.00000
										}
									}
								}
								JOINT rthumb
								{
									OFFSET 0 0 0
									CHANNELS 3 Zrotation Yrotation Xrotation
									End Site
									{
										OFFSET -0.53247 -0.00000 0.53247
									}
								}
							}
						}
					}
				}
			}
		}
	}
}
MOTION
Frames: 6
Frame Time: 0.033333
2.4636 -3.1121 -2.6944 2.6006 8.1706 -7.2131 1.9267 14.2372 6.4181 -0.7579 -1.5801 14.2308 -6.7404 8.6144 8.2308 3.5462 -6.0275 12.6380 -10.3506 -9.6075 -3.5572 -15.1265 -22.9151 13.2748 16.4199 18.2920 -10.5177 13.3876 -21.5138 4.4816 -17.0319 8.8107 -26.6322 7.8312 -9.8950 0.7726 2.8413 -4.3683 8.0171 -1.6516 -5.1973 -1.8316 5.0210 4.3876 -2.8885 -4.9394 -2.6370 -8.1107 2.8001 0.8736 0.5505 3.3205 -0.8906 -3.7471 -2.3522 -1.3269 -3.8612 -2.3945 0.0886 0.8668 2.3877 -10.5390 -1.7672 5.6543 -5.6176 -6.3697 4.1773 1.4760 1.0058 -2.6269 -1.6267 0.0623 -1.1429 0.0234 0.9169 0.0070 3.6235 3.4556 3.0029 1.1449 1.1014 0.9652 0.0882 0.0630 0.0578 0.0168 0.0156 0.0080 0.0000 0.0070 0.0070 0.0000 0.0069 0.0000 0.0000 0.0000
-17.7952 21.2907 20.3070 -18.1607 -57.1233 51.1931 -13.7703 -98.5852 -45.0390 5.2222 10.4420 -99.2140 47.0546 -59.4629 -57.2921 -24.8244 41.9638 -88.0266 71.4088 67.1401 24.2335 105.0743 160.1857 -92.6771 -114.3890 -127.2011 73.0964 -93.1281 150.1222 -31.5692 118.6278 -61.4891 184.9010 -54.1966 68.6960 -5.9281 -19.5447 30.7660 -55.7986 11.7527 36.2338 12.6886 -35.1622 -30.2671 20.1953 34.4512 18.3436 56.4185 -19.7563 -6.4957 -4.0870 -22.9183 6.4611 25.7912 16.8979 9.2903 26.9227 16.5917 -0.6416 -6.0410 -16.6886 73.4171 12.1631 -39.1059 39.3941 44.8391 -28.6589 -10.2981 -6.9081 18.2976 11.3454 -0.4252 7.9284 -0.1818 -6.3687 -0.0476 -26.2450 -24.9979 -21.7840 -8.2467 -7.8246 -6.8166 -0.5813 -0.4161 -0.3827 -0.1116 -0.1047 -0.0543 0.0000 -0.0483 -0.0482 0.0000 -0.0481 0.0000 0.0000 0.0000
-8.4738 10.7090 9.2556 -8.9120 -28.3310 24.8150 -6.4580 -49.1892 -22.0913 2.4551 5.4810 -49.1903 23.2699 -30.0072 -28.5123 -12.2704 20.8331 -43.7105 35.8179 33.2995 12.3575 52.3225 79.0704 -45.9007 -56.7871 -63.3753 36.4070 -46.2828 74.4770 -15.3620 58.9380 -30.3863 92.4047 -27.1577 34.2880 -2.4355 -9.8157 15.1448 -27.7163 5.7449 18.0130 6.4222 -17.5312 -15.0045 9.9249 16.9975 9.1769 28.0604 -9.7012 -2.9652 -1.7674 -11.5051 2.8392 12.9267 8.0965 4.6179 13.3077 8.2843 -0.3256 -2.9909 -8.2968 36.4507 6.1921 -19.7241 19.2450 22.0253 -14.3239 -5.1386 -3.3285 8.9129 5.6396 -0.2062 3.9336 -0.0893 -3.1513 -0.0225 -12.4761 -11.7179 -10.1790 -3.7987 -3.6409 -3.1642 -0.2757 -0.1955 -0.1792 -0.0521 -0.0490 -0.0257 0.0000 -0.0223 -0.0223 0.0000 -0.0223 0.0000 0.0000 0.0000
17.6076 -19.1144 -22.4818 17.2040 54.4054 -50.8654 14.0190 88.4290 43.3250 -4.3259 -7.6829 91.1466 -43.6733 51.9242 52.2561 23.6872 -38.9469 81.3435 -62.6054 -62.9421 -20.1954 -95.8691 -149.2072 86.0154 105.2301 116.0746 -66.7335 85.3370 -139.0674 30.0290 -109.5783 57.6464 -168.4838 48.5075 -63.1715 6.1535 17.2015 -28.6019 50.7259 -11.6296 -33.3248 -11.5061 33.8034 25.5192 -19.3572 -31.8834 -17.1260 -51.1931 19.9626 8.4360 4.4164 19.8312 -6.0584 -22.6928 -18.1637 -9.2110 -24.9297 -15.1421 0.8646 5.4275 16.1253 -68.7669 -10.7400 35.8527 -37.2800 -43.9791 24.8696 10.2254 5.8561 -16.5305 -10.5730 0.2801 -7.1563 0.2755 5.7915 -0.0254 26.4264 25.3955 22.3928 9.6042 8.9880 7.4091 -0.1046 -0.0858 -0.0900 -0.0443 -0.0442 -0.0309 0.0000 -0.0309 -0.0319 0.0000 -0.0368 0.0000 0.0000 0.0000
-12.1518 12.5822 14.8094 -11.8572 -35.9777 32.1210 -8.9311 -61.9737 -27.7147 4.2167 7.1623 -62.9201 30.0260 -38.4922 -35.9975 -15.1720 26.1884 -55.2982 45.6610 41.1028 15.7919 66.0826 101.0773 -58.1391 -71.7241 -80.1882 46.2188 -59.0151 94.1479 -19.9842 74.0690 -39.2577 115.5811 -34.5657 42.0993 -4.9019 -12.3279 20.2690 -35.3318 7.2611 22.7368 7.6388 -21.2715 -20.7448 12.8250 21.6959 11.2576 35.8411 -11.8419 -3.2176 -2.7866 -15.2243 4.6074 16.9589 9.7896 5.5897 17.1383 10.5684 -0.2763 -3.8127 -10.1298 45.9340 7.6944 -24.1721 25.1261 27.1496 -19.4995 -6.1348 -5.3065 12.3192 6.9326 -0.3176 5.1683 -0.0102 -4.1335 -0.0266 -18.0768 -17.7387 -15.6660 -4.9648 -4.8317 -4.3099 -0.5926 -0.4304 -0.3974 -0.0962 -0.0865 -0.0260 0.0000 -0.0295 -0.0295 0.0000 -0.0319 0.0000 0.0000 0.0000
-10.4254 16.0313 7.9164 -10.5191 -38.2668 32.9958 -6.0975 -69.7257 -31.6820 -0.1318 6.5322 -68.5139 31.6085 -42.1687 -41.0116 -17.5631 29.0964 -61.6391 49.8105 49.2124 17.6046 73.9140 109.2941 -65.5205 -81.0895 -90.7596 51.9142 -65.2217 106.4449 -20.6831 84.4874 -42.1776 134.7869 -38.9180 50.3270 -0.0282 -13.4625 21.2410 -38.6414 9.0665 26.0572 11.0617 -27.8461 -16.8191 12.9363 23.3766 14.1488 39.1211 -14.3242 -4.3546 -0.7923 -15.0121 0.0025 15.9452 11.6989 6.8889 17.6095 11.3745 -0.8753 -4.0772 -12.4745 50.6018 9.2051 -29.6387 24.0354 32.0878 -15.7818 -7.9150 -1.3931 9.3243 8.1747 -0.1195 4.9435 -0.3814 -3.9380 -0.0292 -14.6656 -13.5416 -11.4001 -3.8535 -3.1279 -2.3767 0.1430 0.0913 0.0745 -0.0172 -0.0230 -0.0384 0.0000 -0.0288 -0.0282 0.0000 -0.0233 0.0000 0.0000 0.0000
